<svg id="Line" xmlns="http://www.w3.org/2000/svg" viewBox="0 0 720 720"><defs><style>.cls-1{opacity:0.81;}.cls-2{fill:red;}</style></defs><title>my_vector_lines</title><g class="cls-1"><path class="cls-2" d="M118.83,84.44a1591.06,1591.06,0,0,1-2.22,203.67c-2.51,33.16-6,66.65-10.68,99.26-4.88,34.37-11.3,68.53-14.75,103.1a514.77,514.77,0,0,0,1.45,114.59c1,7.75,6.2,15.39,15,15,7.29-.33,16-6.66,15-15a514.76,514.76,0,0,1-2.63-101c2.44-33.33,8.54-65.9,13.45-99a1614.11,1614.11,0,0,0,17.34-205q1.14-57.81-2-115.59c-.42-7.82-6.6-15.38-15-15-7.77.35-15.45,6.61-15,15Z"/></g></svg>