<svg id="Line" xmlns="http://www.w3.org/2000/svg" viewBox="0 0 720 720"><defs><style>.cls-1{opacity:0.81;}.cls-2{fill:red;}</style></defs><title>my_vector_lines</title><g class="cls-1"><path class="cls-2" d="M110.51,79.24A1285.89,1285.89,0,0,0,286.87,322.6,1265.82,1265.82,0,0,0,393.75,425.85c39.85,34.19,83,63.14,121.38,99,43.73,40.89,74.29,91.13,113.23,136.31,5.29,6.14,15.78,5.43,21.21,0,6.09-6.08,5.31-15,0-21.21-34.1-39.57-62.28-84.15-99-122.27s-80.47-67-120.71-100.44A1263,1263,0,0,1,322,316.28a1254.48,1254.48,0,0,1-95.09-112.53A1266.83,1266.83,0,0,1,136.41,64.1c-3.94-7.07-13.63-9.41-20.52-5.38a15.23,15.23,0,0,0-5.38,20.52Z"/></g></svg>