<svg id="Line" xmlns="http://www.w3.org/2000/svg" viewBox="0 0 720 720"><defs><style>.cls-1{opacity:0.81;}.cls-2{fill:red;}</style></defs><title>my_vector_lines</title><g class="cls-1"><path class="cls-2" d="M299.4,83c26.35,67.88,53.81,138.34,55.81,211.19,1.94,70.67-20.31,138.4-27.66,209.07-4.06,39.06-2.79,79.13,9.63,116.68,2.54,7.69,10.36,12.7,18.45,10.48,7.52-2.07,13-10.73,10.48-18.45-10.76-32.53-12.31-64.5-9.45-99.16,2.75-33.43,9.78-67.05,16-101.18,6.51-35.37,12.48-71.22,12.62-107.28.16-37.29-6.16-74.54-15.81-110.48-10.89-40.54-26-79.76-41.19-118.85-2.93-7.55-10.07-12.78-18.45-10.47-7.21,2-13.42,10.85-10.48,18.45Z"/></g></svg>